<svg width="32" height="32" viewBox="0 0 32 32" fill="none" xmlns="http://www.w3.org/2000/svg">
<rect y="0.000976562" width="32" height="32" rx="3.2" fill="url(#paint0_linear_1_3653)"/>
<path d="M16.5908 5.06829C16.1162 5.06829 15.7315 5.453 15.7315 5.92755V8.89052C15.7315 9.07052 15.5856 9.21644 15.4056 9.21644H12.4426C11.9681 9.21644 11.5834 9.60115 11.5834 10.0757V13.1572C11.5834 13.6317 11.9681 14.0164 12.4426 14.0164H15.5241C15.9987 14.0164 16.3834 13.6317 16.3834 13.1572V10.1942C16.3834 10.0142 16.5293 9.86829 16.7093 9.86829H19.6722C19.8523 9.86829 19.9982 10.0142 19.9982 10.1942V17.5424C19.9982 17.7224 19.8523 17.8683 19.6722 17.8683H12.3241C12.1441 17.8683 11.9982 17.7224 11.9982 17.5424V14.4609C11.9982 13.9863 11.6135 13.6016 11.1389 13.6016H8.05744C7.58288 13.6016 7.19818 13.9863 7.19818 14.4609V26.0757C7.19818 26.5503 7.58288 26.935 8.05744 26.935H11.1389C11.6135 26.935 11.9982 26.5503 11.9982 26.0757V22.9942C11.9982 22.8142 12.1441 22.6683 12.3241 22.6683H19.6722C19.8523 22.6683 19.9982 22.8142 19.9982 22.9942V26.0757C19.9982 26.5503 20.3829 26.935 20.8574 26.935H23.9389C24.4135 26.935 24.7982 26.5503 24.7982 26.0757V5.92755C24.7982 5.453 24.4135 5.06829 23.9389 5.06829H16.5908Z" fill="url(#paint1_linear_1_3653)" stroke="url(#paint2_linear_1_3653)" stroke-width="0.533333"/>
<line opacity="0.2" x1="3.60208" y1="0.000976557" x2="3.60208" y2="32.001" stroke="white" stroke-width="0.266667"/>
<line opacity="0.2" x1="28.6685" y1="0.000976557" x2="28.6685" y2="32.001" stroke="white" stroke-width="0.266667"/>
<line opacity="0.2" x1="-1.16564e-08" y1="28.4008" x2="32" y2="28.4008" stroke="white" stroke-width="0.266667"/>
<line opacity="0.2" x1="-1.16564e-08" y1="3.33444" x2="32" y2="3.33444" stroke="white" stroke-width="0.266667"/>
<defs>
<linearGradient id="paint0_linear_1_3653" x1="32" y1="0.000975601" x2="15.8667" y2="22.6676" gradientUnits="userSpaceOnUse">
<stop stop-color="#9988FF"/>
<stop offset="1" stop-color="#684FF8"/>
</linearGradient>
<linearGradient id="paint1_linear_1_3653" x1="15.9982" y1="5.33496" x2="15.9982" y2="26.6683" gradientUnits="userSpaceOnUse">
<stop stop-color="white"/>
<stop offset="1" stop-color="white" stop-opacity="0.8"/>
</linearGradient>
<linearGradient id="paint2_linear_1_3653" x1="15.9982" y1="5.33496" x2="15.9982" y2="26.6683" gradientUnits="userSpaceOnUse">
<stop stop-color="#7C6BE3"/>
<stop offset="1" stop-color="#5B46D3"/>
</linearGradient>
</defs>
</svg>
